<?xml version="1.0" standalone="no"?>
<!DOCTYPE svg PUBLIC "-//W3C//DTD SVG 20010904//EN"
 "http://www.w3.org/TR/2001/REC-SVG-20010904/DTD/svg10.dtd">
<svg version="1.0" xmlns="http://www.w3.org/2000/svg"
 width="16.000000pt" height="16.000000pt" viewBox="0 0 16.000000 16.000000"
 preserveAspectRatio="xMidYMid meet">
<metadata>
Created by potrace 1.11, written by Peter Selinger 2001-2013
</metadata>
<g transform="translate(0.000000,16.000000) scale(0.003125,-0.003125)"
fill="#000000" stroke="none">
<path d="M1887 4773 c-2 -1 -23 -5 -48 -8 -132 -16 -305 -71 -429 -138 -70
-37 -222 -139 -269 -180 -99 -86 -236 -230 -301 -316 -14 -18 -35 -45 -46 -59
-65 -82 -174 -264 -235 -392 -17 -36 -39 -81 -49 -101 -32 -63 -81 -231 -85
-290 -3 -52 -1 -59 26 -85 25 -24 37 -28 89 -28 71 0 104 24 121 88 22 83 101
280 159 400 102 211 223 382 376 532 90 89 254 214 281 214 7 0 13 4 13 8 0
20 199 97 331 128 43 11 227 12 266 3 21 -5 47 -12 58 -14 99 -22 222 -130
279 -245 56 -115 76 -224 71 -405 -2 -82 -6 -161 -9 -174 -3 -12 -8 -44 -11
-70 -8 -58 -11 -74 -25 -141 -6 -30 -14 -68 -17 -85 -2 -16 -16 -77 -29 -135
-46 -198 -55 -235 -59 -255 -2 -11 -8 -35 -14 -52 -5 -18 -8 -33 -6 -33 3 0 0
-11 -5 -25 -5 -14 -12 -36 -14 -48 -9 -39 -92 -371 -137 -542 -17 -66 -32
-124 -34 -130 -1 -5 -4 -17 -7 -25 -3 -8 -18 -64 -33 -125 -15 -60 -39 -150
-52 -200 -14 -49 -26 -98 -28 -107 -8 -39 -58 -218 -81 -293 -53 -167 -129
-328 -217 -460 -42 -63 -150 -191 -179 -213 -9 -7 -23 -18 -30 -25 -65 -65
-234 -148 -341 -167 -55 -11 -210 -14 -247 -6 -8 1 -37 6 -65 10 -90 14 -295
91 -295 112 0 3 4 3 8 0 4 -2 39 9 77 25 39 16 70 28 70 27 0 -1 26 15 58 36
123 82 211 211 235 346 36 199 -52 365 -219 410 -24 7 -51 15 -59 17 -40 14
-186 1 -224 -19 -12 -6 -23 -11 -26 -10 -14 3 -99 -43 -139 -75 -71 -58 -112
-106 -151 -179 -32 -58 -69 -177 -64 -206 1 -10 -2 -20 -6 -23 -5 -3 -7 -11
-5 -18 2 -7 6 -44 9 -84 19 -237 193 -424 486 -523 36 -12 73 -24 83 -26 10
-2 26 -5 35 -8 88 -27 334 -39 447 -23 28 4 73 14 100 23 28 8 57 17 66 19 17
3 136 61 179 85 37 22 141 100 175 131 17 15 41 38 55 51 82 76 201 229 270
348 40 68 44 73 51 50 16 -61 100 -219 137 -260 12 -14 22 -28 22 -32 0 -5 8
-16 18 -26 9 -10 31 -34 48 -53 87 -96 196 -176 324 -238 70 -34 206 -80 255
-87 17 -2 46 -7 65 -10 51 -9 266 -10 335 -1 118 16 242 53 361 108 57 27 193
107 212 126 7 7 16 13 20 13 4 0 22 13 40 28 17 15 48 41 68 57 137 114 301
306 415 485 30 47 60 95 67 105 6 11 41 79 77 150 66 135 131 311 141 386 11
83 -27 129 -109 132 -84 2 -110 -25 -152 -164 -14 -46 -30 -93 -35 -104 -5
-11 -19 -45 -30 -75 -29 -82 -139 -294 -195 -380 -269 -410 -658 -662 -1023
-661 -117 0 -189 20 -277 76 -113 72 -183 175 -224 327 -53 196 -40 387 50
758 22 91 42 172 44 180 2 8 11 44 20 80 9 36 18 72 20 80 2 8 38 152 80 320
42 168 78 314 80 325 3 11 39 157 81 325 41 168 88 357 104 420 16 63 43 160
61 215 18 55 33 102 34 105 1 3 9 22 18 44 9 21 17 40 17 43 0 16 117 234 160
299 64 95 193 227 272 277 138 88 256 118 433 112 66 -2 129 -6 140 -8 43 -11
111 -28 127 -32 9 -2 39 -13 65 -25 26 -11 60 -26 76 -33 25 -11 36 -26 20
-28 -88 -9 -240 -100 -316 -188 -176 -206 -175 -478 1 -605 132 -96 337 -92
502 10 173 107 259 272 258 494 -1 195 -87 349 -259 463 -93 61 -245 122 -354
141 -16 3 -41 8 -55 11 -97 21 -315 24 -405 5 -71 -14 -172 -49 -237 -81 -82
-42 -163 -91 -171 -105 -4 -8 -12 -14 -17 -14 -6 0 -18 -8 -28 -17 -10 -10
-41 -39 -68 -64 -125 -118 -239 -267 -320 -417 -11 -23 -15 -18 -68 90 -31 63
-63 123 -71 134 -8 10 -37 48 -64 84 -161 214 -398 347 -705 396 -39 6 -264
12 -269 7z"/>
</g>
</svg>
