<?xml version="1.0" encoding="UTF-8" standalone="no"?>
<svg
   xmlns:dc="http://purl.org/dc/elements/1.1/"
   xmlns:cc="http://creativecommons.org/ns#"
   xmlns:rdf="http://www.w3.org/1999/02/22-rdf-syntax-ns#"
   xmlns:svg="http://www.w3.org/2000/svg"
   xmlns="http://www.w3.org/2000/svg"
   xmlns:sodipodi="http://sodipodi.sourceforge.net/DTD/sodipodi-0.dtd"
   xmlns:inkscape="http://www.inkscape.org/namespaces/inkscape"
   width="2.66667in"
   height="2.66667in"
   viewBox="0 0 800 800"
   id="svg2"
   version="1.1"
   inkscape:version="0.48.4 r9939"
   sodipodi:docname="gravatar.svg">
  <metadata
     id="metadata9">
    <rdf:RDF>
      <cc:Work
         rdf:about="">
        <dc:format>image/svg+xml</dc:format>
        <dc:type
           rdf:resource="http://purl.org/dc/dcmitype/StillImage" />
        <dc:title></dc:title>
      </cc:Work>
    </rdf:RDF>
  </metadata>
  <defs
     id="defs7" />
  <sodipodi:namedview
     pagecolor="#ffffff"
     bordercolor="#666666"
     borderopacity="1"
     objecttolerance="10"
     gridtolerance="10"
     guidetolerance="10"
     inkscape:pageopacity="0"
     inkscape:pageshadow="2"
     inkscape:window-width="1280"
     inkscape:window-height="745"
     id="namedview5"
     showgrid="false"
     inkscape:zoom="0.98333208"
     inkscape:cx="-51.355998"
     inkscape:cy="120.00015"
     inkscape:window-x="-4"
     inkscape:window-y="-3"
     inkscape:window-maximized="1"
     inkscape:current-layer="svg2" />
  <path
     id="Selection"
     d="M 155.00,678.09            C 163.61,680.56 167.30,680.01 176.00,680.00              214.57,679.94 243.76,648.11 261.57,617.00              271.54,599.59 278.08,578.14 284.02,559.00              284.02,559.00 314.88,446.00 314.88,446.00              314.88,446.00 350.37,306.00 350.37,306.00              356.60,281.09 362.88,256.34 367.08,231.00              368.72,221.09 370.98,207.89 371.00,198.00              371.00,198.00 371.00,182.00 371.00,182.00              370.63,150.45 351.06,128.95 321.00,121.47              312.58,119.38 302.72,119.90 294.00,120.00              279.73,120.17 260.11,126.07 247.00,131.72              205.49,149.62 168.55,188.91 146.86,228.00              139.37,241.50 130.50,261.23 126.14,276.00              123.74,284.16 120.33,300.39 113.91,305.57              109.24,309.34 92.28,310.92 86.00,311.00              86.00,311.00 67.00,311.00 67.00,311.00              64.36,310.99 61.42,311.19 59.00,309.98              52.86,306.89 46.50,295.86 46.11,289.00              45.89,285.24 47.43,277.79 48.37,274.00              56.89,239.79 75.13,207.81 95.02,179.00              119.84,143.05 149.41,108.79 186.00,84.52              221.10,61.23 258.40,50.76 300.00,47.91              300.00,47.91 310.00,47.00 310.00,47.00              310.00,47.00 326.00,47.91 326.00,47.91              355.79,49.99 382.00,57.69 408.00,72.58              426.57,83.21 441.46,95.38 456.02,111.00              462.09,117.50 470.94,127.71 474.00,136.00              479.49,131.71 483.20,125.37 487.61,120.00              494.81,111.24 502.70,102.82 511.00,95.09              544.34,64.04 586.33,46.47 632.00,47.00              632.00,47.00 642.00,47.91 642.00,47.91              696.56,51.90 748.58,81.73 767.95,135.00              779.14,165.78 777.43,208.61 762.73,238.00              757.89,247.69 752.14,254.86 745.13,263.00              735.67,273.99 725.40,282.39 712.00,288.13              700.60,293.01 682.41,296.02 670.00,296.00              661.06,295.99 651.49,294.47 643.00,291.65              636.06,289.33 630.99,286.79 625.00,282.56              602.76,266.87 596.06,242.94 598.84,217.00              600.35,202.86 602.69,191.81 609.26,179.00              617.60,162.72 629.66,150.82 645.00,141.05              645.00,141.05 667.00,129.00 667.00,129.00              642.53,118.47 635.80,119.88 610.00,120.00              595.98,120.07 587.60,124.67 576.00,132.05              551.71,147.51 535.84,169.64 523.25,195.00              511.94,217.78 506.56,243.49 500.12,268.00              500.12,268.00 475.12,363.00 475.12,363.00              462.04,412.76 449.67,462.76 438.58,513.00              434.15,533.04 424.38,578.11 423.05,597.00              423.05,597.00 423.05,618.00 423.05,618.00              423.45,654.81 455.85,679.95 491.00,680.00              491.00,680.00 498.00,680.00 498.00,680.00              522.08,679.71 548.22,668.83 568.00,655.67              599.28,634.85 626.67,606.57 645.58,574.00              656.87,554.54 662.02,541.15 669.00,520.00              672.10,510.60 674.17,497.47 683.00,491.72              689.63,487.40 712.56,486.91 721.00,487.00              734.09,487.16 748.82,492.30 747.91,508.00              746.50,532.36 728.54,571.19 717.26,593.00              686.86,651.78 628.53,711.77 566.00,735.58              535.53,747.18 505.45,751.38 473.00,751.00              473.00,751.00 463.00,750.09 463.00,750.09              417.40,746.90 376.13,728.80 344.83,694.99              337.72,687.30 323.62,671.45 320.00,662.00              320.00,662.00 318.00,662.00 318.00,662.00              313.72,670.32 303.54,681.86 297.16,689.00              272.94,716.13 242.08,738.52 206.00,746.34              188.75,750.08 169.66,749.20 152.00,749.00              127.54,748.71 92.67,739.14 73.00,724.52              54.87,711.05 39.07,687.91 30.60,667.00              25.21,653.67 20.17,635.40 20.00,621.00              19.44,573.00 40.89,528.67 87.00,509.42              114.05,498.14 156.87,498.58 178.96,520.09              190.37,531.20 196.81,551.28 197.00,567.00              197.00,567.00 197.00,578.00 197.00,578.00              196.96,603.58 185.01,623.73 168.17,641.99              158.06,652.95 145.65,663.05 131.00,667.00              131.00,667.00 131.00,669.00 131.00,669.00              131.00,669.00 155.00,678.09 155.00,678.09 Z"
     stroke-width="1"
     stroke="black"
     fill="none" />
  <path
     style="fill:#000000"
     d="m 131.69508,223.15289 c -12.68786,-2.7476 -26.798,-11.99356 -32.579679,-21.34852 -1.189384,-1.92447 -2.697228,-3.48119 -3.350763,-3.45937 -0.653536,0.0219 -2.641346,2.01654 -4.417357,4.43273 -3.574855,4.86345 -12.088134,12.34356 -17.688672,15.54201 -7.954817,4.54296 -13.670747,5.67877 -26.234756,5.21312 C 37.184914,223.15337 34.740305,222.70891 29.253279,220.22917 18.063256,215.17209 9.9757031,204.09562 7.4134938,190.31804 5.3100212,179.00719 9.441948,166.85746 18.012681,159.15163 c 10.795325,-9.70593 28.977663,-10.21341 36.216412,-1.01083 4.665416,5.93111 5.401006,17.48254 1.620591,25.44916 -2.187365,4.60953 -10.573637,13.35385 -14.088796,14.69032 -3.595649,1.36706 -3.26594,2.77383 1.075225,4.58769 5.832629,2.43703 14.343667,1.98533 20.512292,-1.08863 11.708569,-5.83462 17.814517,-16.80181 26.022006,-46.73937 6.016736,-21.94659 19.013519,-73.377042 21.061779,-83.344964 1.81575,-8.836383 1.65314,-21.686138 -0.32173,-25.423761 -5.25553,-9.946617 -17.674018,-13.248936 -32.547443,-8.655003 -15.892406,4.908665 -32.280489,22.588843 -39.408459,42.515566 -1.758237,4.915271 -3.608668,9.60406 -4.112068,10.419531 -0.674335,1.092377 -2.987125,1.482676 -8.78586,1.482676 -7.48427,0 -7.946507,-0.13439 -9.417322,-2.737976 -1.977976,-3.501347 -0.650799,-9.07498 4.917567,-20.651884 10.055327,-20.905517 28.538164,-40.407071 45.337775,-47.836656 12.128614,-5.363849 29.803688,-7.084231 41.49546,-4.038911 11.99585,3.124523 26.02565,12.417941 31.70683,21.0028 l 2.74872,4.153586 6.54367,-7.169733 c 12.11684,-13.276091 24.90803,-19.500984 40.07149,-19.500984 17.76985,0 33.6499,9.231735 39.92695,23.211212 3.30247,7.354854 3.6377,21.231506 0.70449,29.161736 -2.92525,7.908755 -11.86346,17.071746 -18.42182,18.885106 -11.21475,3.100834 -21.36025,0.543735 -26.95731,-6.794392 -2.21414,-2.90288 -2.90204,-5.05606 -3.22232,-10.086069 -0.7532,-11.82875 4.34686,-21.195602 14.93421,-27.428407 2.85028,-1.677968 5.19141,-3.321635 5.20252,-3.652593 0.044,-1.312127 -8.22264,-2.957584 -14.85866,-2.957584 -8.3513,0 -12.77687,1.983776 -19.9259,8.931857 -9.79995,9.524504 -13.33592,19.83699 -29.36602,85.644537 -8.2384,33.82065 -10.06663,43.45616 -10.06663,53.05515 0,14.64444 8.42196,21.91274 24.34811,21.01283 10.48428,-0.59242 20.6392,-6.00265 31.07491,-16.55576 9.22686,-9.33068 13.5194,-16.03074 18.14252,-28.318 1.76782,-4.69848 3.81828,-9.27053 4.55657,-10.16009 0.74079,-0.89257 3.7713,-1.92088 6.76234,-2.29459 14.03639,-1.75373 15.14444,5.92021 4.04385,28.00628 -2.38952,4.75424 -5.95967,10.89363 -7.93368,13.6431 -4.7739,6.64924 -14.94033,17.08463 -21.38153,21.9472 -15.47946,11.68571 -36.47788,16.55601 -54.52834,12.64711 z"
     id="path3756"
     inkscape:connector-curvature="0"
     transform="scale(3.3333291,3.3333291)" />
</svg>
